<?xml version="1.0" encoding="UTF-8"?>
<svg version="1.1" xmlns="http://www.w3.org/2000/svg" width="1184" height="864">
<path d="M0 0 C0.77269226 -0.0049649 1.54538452 -0.00992981 2.3414917 -0.01504517 C4.89840586 -0.02965357 7.45525799 -0.03646635 10.01220703 -0.04199219 C11.78956097 -0.04774445 13.56691489 -0.05350217 15.3442688 -0.05926514 C19.07163787 -0.06977117 22.79898539 -0.07561653 26.52636719 -0.07910156 C31.30026457 -0.0845874 36.0738769 -0.10861896 40.84768486 -0.13707352 C44.5194278 -0.1557051 48.19110212 -0.16090576 51.86288834 -0.16243744 C53.62273849 -0.165463 55.38258746 -0.17348829 57.1423912 -0.18662262 C59.60556435 -0.20369521 62.06804154 -0.20180018 64.53125 -0.1953125 C65.25661957 -0.20452728 65.98198914 -0.21374207 66.7293396 -0.22323608 C71.11961831 -0.18704959 73.95611369 0.37630331 77.39501953 3.16113281 C79.18808294 6.08912534 79.64511362 8.27828579 79.64657593 11.68841553 C79.65465019 13.04241455 79.65465019 13.04241455 79.66288757 14.42376709 C79.65876358 15.40669739 79.65463959 16.38962769 79.65039062 17.40234375 C79.6558213 18.96402283 79.6558213 18.96402283 79.66136169 20.55725098 C79.66825553 22.81838861 79.67076116 25.07954288 79.66941452 27.34069061 C79.66844983 30.92224892 79.6813858 34.50350665 79.69839478 38.08502197 C79.74467971 48.26824602 79.76926761 58.45144004 79.77587891 68.63476562 C79.78089847 74.86405406 79.80517366 81.09302976 79.8412056 87.32221222 C79.85099521 89.69358694 79.85334015 92.06500474 79.84803391 94.43639374 C79.8409499 97.75871592 79.8582751 101.08010927 79.88085938 104.40234375 C79.87268692 105.37717712 79.86451447 106.3520105 79.85609436 107.35638428 C79.94125541 114.41763167 81.45066985 119.81645488 86.17626953 125.18457031 C86.74345703 125.63058594 87.31064453 126.07660156 87.89501953 126.53613281 C88.46220703 126.99761719 89.02939453 127.45910156 89.61376953 127.93457031 C94.09965618 131.02353612 97.70119784 131.44723211 103.09765625 131.41650391 C103.86888824 131.42012436 104.64012024 131.42374481 105.4347229 131.42747498 C107.10654392 131.43435904 108.77838737 131.43687627 110.45022202 131.4355278 C113.09873363 131.43456155 115.74684052 131.44751656 118.39529419 131.46450806 C125.92430488 131.51074967 133.45327405 131.535384 140.98242188 131.54199219 C145.59078645 131.54701191 150.1987283 131.57128486 154.80694962 131.60731888 C156.56034938 131.61710607 158.31380737 131.61945472 160.06722641 131.61414719 C162.52314045 131.6070621 164.97779834 131.62438722 167.43359375 131.64697266 C168.153797 131.6388002 168.87400024 131.63062775 169.61602783 131.62220764 C174.64362966 131.70423358 177.52176101 133.00070834 181.39501953 136.16113281 C182.67159325 138.71428024 182.5295282 140.51970096 182.54219055 143.37922668 C182.55292351 145.03851448 182.55292351 145.03851448 182.56387329 146.73132324 C182.56656219 147.95057495 182.5692511 149.16982666 182.57202148 150.42602539 C182.57859268 151.70575729 182.58516388 152.9854892 182.5919342 154.30400085 C182.60934815 157.82062864 182.61989703 161.33724283 182.62813973 164.85390306 C182.63328909 167.05067764 182.63936485 169.24744799 182.64565086 171.44421959 C182.66470411 178.31650947 182.67893492 185.1887886 182.68726283 192.06109983 C182.69703661 199.9957167 182.72335895 207.9300547 182.76376373 215.8645733 C182.79391723 221.99627826 182.80873096 228.12790325 182.81204385 234.25968093 C182.81439524 237.92249682 182.82336666 241.58501484 182.84850502 245.24775124 C182.87610145 249.33469847 182.87195702 253.4210222 182.86499023 257.50805664 C182.88420532 259.32782516 182.88420532 259.32782516 182.90380859 261.18435669 C182.85288635 269.35861319 182.85288635 269.35861319 180.55314636 273.38945007 C176.57437738 276.65576242 172.5402076 276.32045206 167.64160156 276.33813477 C166.85249893 276.34470596 166.0633963 276.35127716 165.25038147 276.35804749 C162.63453063 276.3777791 160.01873746 276.38944842 157.40283203 276.39941406 C156.50610653 276.40348959 155.60938103 276.40756512 154.68548203 276.41176414 C149.93078594 276.43263339 145.17611871 276.44692627 140.42138672 276.45629883 C135.53833608 276.46731011 130.65574784 276.50164584 125.77285957 276.54147053 C121.99613677 276.56778689 118.21952109 276.57600434 114.44271469 276.57958031 C112.64480372 276.58441477 110.8468965 276.59593771 109.04907608 276.6146183 C90.37472875 276.79645328 74.63786208 272.84622672 60.68408203 259.64550781 C48.44891111 246.36638033 45.10642923 230.67931956 45.12158203 213.18066406 C45.10130821 210.69302923 45.08045774 208.20539904 45.05908203 205.71777344 C45.03643581 201.8336999 45.01998381 197.94981052 45.01416016 194.06567383 C45.00463881 190.29117435 44.97088686 186.51748235 44.93408203 182.74316406 C44.94165024 181.00701591 44.94165024 181.00701591 44.94937134 179.23579407 C44.86954301 172.68523408 44.42675646 168.42925092 40.39501953 163.16113281 C35.27321744 160.1077508 31.19182278 159.51704356 25.39501953 160.16113281 C20.79523168 162.77464864 17.50750885 165.96717211 14.20751953 170.03613281 C13.73830078 170.60275635 13.26908203 171.16937988 12.78564453 171.75317383 C8.00852673 177.5549834 3.37351125 183.47069368 -1.23876953 189.40380859 C-3.47960399 192.28613997 -5.72782002 195.16264464 -7.97998047 198.03613281 C-8.42784912 198.6076709 -8.87571777 199.17920898 -9.3371582 199.76806641 C-13.44121802 204.98719427 -17.63903902 210.12789863 -21.83886719 215.27001953 C-25.16280465 219.3516845 -28.41279594 223.47559426 -31.60498047 227.66113281 C-35.86384409 233.24528301 -40.26273602 238.70089597 -44.70947266 244.13623047 C-48.32018103 248.55652902 -51.8553751 253.02760987 -55.35498047 257.53613281 C-66.91576186 272.3683204 -66.91576186 272.3683204 -72.60498047 276.16113281 C-75.26604753 276.36573688 -77.82333103 276.45484547 -80.48535156 276.45166016 C-81.28730453 276.45837738 -82.08925751 276.4650946 -82.91551208 276.47201538 C-85.56987687 276.49103229 -88.22398928 276.49492147 -90.87841797 276.49707031 C-92.7230337 276.50349589 -94.56764839 276.51022406 -96.41226196 276.51724243 C-100.28088748 276.52922458 -104.14942364 276.53292231 -108.01806641 276.53173828 C-112.97367789 276.53153509 -117.92871593 276.55883347 -122.88419151 276.5932827 C-126.69492216 276.61552851 -130.50551432 276.61957653 -134.31630325 276.61851883 C-136.14314373 276.62087843 -137.96998781 276.62972215 -139.79676437 276.64518356 C-142.35352378 276.66479611 -144.90904058 276.65902457 -147.46582031 276.64697266 C-148.2192421 276.65821167 -148.97266388 276.66945068 -149.74891663 276.68103027 C-154.64964182 276.62237521 -157.17145918 275.66291739 -160.60498047 272.16113281 C-162.11034996 269.15039384 -161.7784848 266.03704194 -161.79785156 262.7331543 C-161.8101178 261.5839727 -161.8101178 261.5839727 -161.82263184 260.41157532 C-161.84750168 257.86846701 -161.86401083 255.32541481 -161.87841797 252.78222656 C-161.88374165 251.91268908 -161.88906532 251.04315159 -161.89455032 250.14726448 C-161.92129593 245.53983568 -161.94066144 240.93243403 -161.95507812 236.32495117 C-161.96838919 232.51969208 -161.99618682 228.71497282 -162.03710938 224.90991211 C-162.08657544 220.31043418 -162.11121709 215.71144406 -162.11830521 211.1117115 C-162.12499685 209.36350243 -162.1401643 207.61530333 -162.16419601 205.86724663 C-162.39060394 188.39346904 -162.39060394 188.39346904 -156.60498047 181.16113281 C-156.09090134 180.47887131 -155.5768222 179.7966098 -155.04716492 179.09367371 C-153.55639381 177.15046672 -151.99959442 175.28056016 -150.41748047 173.41113281 C-149.25592921 172.01124748 -148.0957876 170.61019137 -146.93701172 169.20800781 C-146.36934082 168.52287109 -145.80166992 167.83773437 -145.21679688 167.13183594 C-142.946384 164.35589338 -140.77491186 161.51649262 -138.60498047 158.66113281 C-134.92422015 153.83273639 -131.1405832 149.10695832 -127.29248047 144.41113281 C-122.73635918 138.85067633 -118.3162816 133.20699303 -113.97998047 127.47363281 C-109.68618346 121.80176988 -105.26406551 116.29498421 -100.62792969 110.90039062 C-95.41383431 104.81633168 -90.51974006 98.48740995 -85.60498047 92.16113281 C-79.12680536 83.83034745 -72.5327178 75.61475854 -65.80371094 67.48486328 C-60.28371913 60.80244929 -54.92891959 53.99999792 -49.60498047 47.16113281 C-43.23395242 38.99320813 -36.79947308 30.88402576 -30.24365234 22.86328125 C-27.18870621 19.12436459 -24.19088353 15.35037158 -21.22998047 11.53613281 C-14.90229644 3.60311668 -10.30766172 0.01579686 0 0 Z " fill="#010100" transform="translate(581.60498046875,293.8388671875)"/>
</svg>
